<?xml version="1.0" standalone="no"?>
<!DOCTYPE svg PUBLIC "-//W3C//DTD SVG 20010904//EN"
 "http://www.w3.org/TR/2001/REC-SVG-20010904/DTD/svg10.dtd">
<svg version="1.0" xmlns="http://www.w3.org/2000/svg"
 width="1643.000000pt" height="1643.000000pt" viewBox="0 0 1643.000000 1643.000000"
 preserveAspectRatio="xMidYMid meet">
<metadata>
Created by potrace 1.14, written by Peter Selinger 2001-2017
</metadata>
<g transform="translate(0.000000,1643.000000) scale(0.100000,-0.100000)"
fill="#000000" stroke="none">
<path d="M5773 13140 c-10 -18 -28 -45 -40 -60 -13 -15 -23 -31 -23 -34 0 -4
-19 -37 -43 -74 -58 -92 -64 -102 -86 -143 -11 -19 -27 -41 -35 -48 -9 -8 -16
-18 -16 -23 0 -6 -10 -24 -22 -41 -27 -38 -36 -52 -65 -105 -13 -22 -28 -44
-33 -47 -6 -4 -15 -17 -20 -28 -6 -12 -20 -38 -32 -57 -13 -20 -32 -50 -43
-69 -11 -18 -35 -56 -54 -84 -18 -29 -43 -68 -53 -87 l-20 -34 54 -51 c29 -27
87 -79 128 -115 41 -36 87 -77 101 -92 15 -16 30 -28 33 -28 4 0 37 -29 74
-64 99 -95 185 -166 200 -166 8 0 21 8 30 19 10 10 85 74 167 141 83 68 168
140 190 159 23 20 91 78 153 130 62 52 112 96 112 98 0 2 -17 30 -37 61 -21
31 -40 62 -43 67 -3 6 -23 35 -45 66 -22 30 -44 62 -50 71 -5 8 -32 48 -60 89
-27 40 -55 80 -60 88 -28 43 -88 131 -115 169 -16 23 -30 45 -30 48 0 4 -12
20 -26 38 -14 17 -50 69 -81 116 -30 47 -63 94 -73 104 -19 19 -19 19 -37 -14z"/>
<path d="M9014 13150 c-5 -5 -29 -20 -54 -34 -62 -35 -127 -72 -175 -100 -22
-13 -71 -40 -110 -61 -38 -21 -77 -43 -85 -50 -8 -7 -46 -29 -85 -49 -38 -21
-77 -44 -86 -52 -8 -8 -23 -14 -32 -14 -9 0 -18 -4 -21 -9 -3 -5 -32 -24 -64
-42 -31 -18 -69 -40 -84 -49 -14 -8 -50 -28 -80 -45 -29 -16 -60 -34 -70 -40
-9 -5 -58 -34 -110 -63 -51 -29 -106 -61 -123 -71 -52 -31 -129 -74 -160 -89
-16 -8 -37 -20 -45 -27 -8 -7 -40 -25 -70 -41 -30 -15 -62 -34 -70 -40 -8 -7
-46 -29 -85 -50 -38 -20 -77 -42 -85 -49 -8 -7 -28 -19 -45 -27 -32 -16 -150
-82 -175 -97 -28 -18 -195 -113 -260 -149 -36 -19 -76 -44 -89 -54 -13 -10
-28 -18 -33 -18 -6 0 -22 -8 -36 -18 -15 -11 -52 -32 -82 -47 -30 -16 -62 -35
-70 -41 -8 -7 -46 -29 -85 -50 -38 -20 -77 -42 -85 -49 -8 -7 -46 -29 -85 -50
-38 -21 -88 -48 -110 -61 -22 -13 -60 -35 -85 -49 -25 -14 -67 -39 -95 -55
-27 -17 -58 -33 -67 -36 -10 -4 -18 -10 -18 -14 0 -4 39 -37 88 -74 48 -36
128 -97 177 -136 352 -274 392 -305 433 -331 17 -12 32 -25 32 -30 0 -5 7 -9
15 -9 7 0 18 -6 22 -13 4 -7 38 -35 75 -63 38 -27 68 -52 68 -56 0 -5 5 -8 10
-8 9 0 66 -43 158 -120 13 -11 26 -20 29 -20 2 0 32 -22 66 -49 130 -105 223
-177 257 -201 19 -13 58 -43 86 -67 28 -24 56 -43 62 -43 6 0 15 -6 19 -13 4
-8 20 -21 34 -31 29 -18 47 -15 94 18 37 26 52 35 103 63 22 13 44 28 47 33 4
6 17 15 28 20 12 6 38 20 57 32 20 13 51 32 69 43 18 11 46 30 61 43 15 12 33
22 40 22 7 0 25 10 40 23 16 12 57 39 92 60 34 21 78 48 97 60 67 43 167 106
209 132 l42 26 28 -21 c23 -18 982 -975 2514 -2508 196 -196 446 -445 556
-553 l199 -197 6 -443 c4 -244 7 -687 7 -983 l0 -539 78 -103 c42 -56 95 -128
117 -160 22 -31 54 -74 70 -95 17 -21 49 -64 73 -96 101 -135 178 -239 192
-260 8 -12 51 -69 95 -128 44 -58 119 -158 167 -223 96 -130 106 -142 219
-292 44 -58 91 -121 104 -140 52 -74 72 -102 148 -202 43 -56 96 -128 118
-158 47 -65 83 -113 147 -197 26 -34 79 -105 117 -158 39 -53 88 -120 110
-148 22 -29 63 -83 90 -121 28 -37 62 -82 76 -99 l26 -31 7 3114 8 3113 -53
49 c-29 26 -56 48 -60 48 -5 0 -16 11 -25 25 -9 14 -21 25 -27 25 -5 0 -19 10
-31 23 -28 28 -80 75 -176 156 -41 35 -84 72 -95 82 -70 63 -142 128 -300 264
-55 48 -104 93 -108 101 -4 8 -13 14 -18 14 -6 0 -23 13 -39 28 -15 16 -47 44
-70 63 -23 19 -54 45 -69 59 -15 14 -53 48 -85 75 -32 28 -70 61 -85 75 -15
14 -49 43 -75 65 -26 22 -60 51 -75 65 -15 14 -54 48 -85 75 -111 96 -150 130
-172 153 -12 12 -25 22 -29 22 -4 0 -19 12 -34 28 -14 15 -55 52 -91 82 -35
30 -79 70 -98 88 -19 17 -38 32 -43 32 -5 0 -16 11 -25 25 -9 14 -21 25 -27
25 -5 0 -19 10 -31 23 -28 28 -82 76 -176 156 -41 35 -82 71 -91 80 -10 9 -38
34 -64 56 -26 22 -59 52 -74 66 -43 41 -138 119 -146 119 -7 0 -115 91 -180
152 -39 37 -101 91 -200 176 -55 47 -107 92 -115 101 -9 9 -42 38 -75 65 -33
27 -64 55 -70 61 -5 6 -57 52 -115 102 -135 116 -178 153 -204 178 -11 11 -70
62 -131 114 -60 51 -121 104 -135 117 -14 13 -38 35 -54 48 -15 14 -86 76
-158 138 -71 62 -135 115 -141 117 -7 2 -25 18 -42 34 -16 17 -77 71 -135 120
-58 50 -112 97 -121 106 -9 9 -38 34 -64 56 -27 22 -58 49 -69 61 -45 45 -146
124 -159 124 -7 0 -17 -4 -23 -10z"/>
<path d="M2600 13043 c0 -54 9 -282 20 -508 11 -225 25 -567 30 -760 5 -192
14 -435 20 -540 6 -104 15 -343 20 -530 12 -439 21 -615 31 -615 5 0 38 -20
75 -45 36 -25 68 -45 71 -45 3 0 21 -11 39 -25 18 -14 35 -25 38 -25 2 0 33
-19 68 -42 78 -53 86 -58 135 -85 22 -12 45 -29 52 -37 8 -9 18 -16 23 -16 6
0 24 -10 41 -22 38 -27 52 -36 104 -65 22 -12 45 -29 52 -37 8 -9 17 -16 22
-16 5 0 54 -29 109 -65 55 -36 103 -65 106 -65 3 0 19 -11 36 -25 16 -14 35
-25 42 -25 7 0 23 -11 36 -25 13 -14 31 -25 41 -25 9 0 22 -7 30 -16 7 -8 29
-24 48 -35 42 -22 52 -29 139 -86 35 -24 65 -43 68 -43 3 0 17 -8 32 -19 25
-17 157 -103 193 -126 9 -5 35 -20 57 -32 22 -13 44 -28 47 -34 4 -6 15 -13
24 -17 20 -8 142 -84 317 -197 67 -44 158 -102 201 -129 79 -50 118 -74 253
-161 148 -95 176 -113 238 -151 35 -21 78 -49 95 -61 18 -12 49 -33 71 -45 46
-27 53 -32 131 -83 78 -52 85 -56 132 -82 22 -12 45 -29 52 -37 8 -9 18 -16
24 -16 6 0 27 -11 46 -23 20 -13 62 -40 94 -60 116 -75 164 -105 232 -149 39
-24 98 -62 133 -84 35 -21 78 -49 95 -61 18 -12 48 -32 67 -43 19 -11 49 -29
65 -40 17 -11 46 -28 66 -39 19 -11 41 -27 48 -35 8 -9 19 -16 25 -16 6 0 50
-26 98 -58 48 -31 115 -75 150 -96 35 -22 93 -59 131 -83 156 -100 205 -131
250 -159 40 -24 187 -119 253 -161 10 -7 36 -22 56 -33 20 -11 39 -24 42 -29
4 -5 36 -26 72 -46 37 -21 85 -50 108 -65 73 -48 339 -218 443 -282 15 -10 48
-31 73 -48 25 -16 52 -33 60 -37 8 -4 41 -25 75 -48 33 -23 92 -60 130 -83 39
-24 97 -60 130 -82 61 -40 130 -80 139 -80 4 0 229 243 319 345 10 11 35 38
56 60 21 22 93 103 161 180 68 77 133 149 145 160 24 22 361 395 410 454 17
20 48 54 70 77 39 39 70 73 271 299 54 61 111 123 128 138 l30 29 -54 51 c-30
28 -93 86 -140 130 -148 138 -162 150 -320 292 -85 76 -184 166 -220 200 -36
34 -166 153 -289 264 l-224 202 -36 -33 c-20 -19 -95 -91 -168 -161 -73 -70
-136 -127 -141 -127 -5 0 -29 15 -53 32 -24 18 -69 50 -99 70 -57 39 -177 122
-215 148 -12 8 -53 36 -92 62 -38 25 -75 53 -82 62 -7 9 -18 16 -23 16 -5 0
-35 19 -66 43 -31 23 -64 47 -73 52 -9 6 -35 24 -59 40 -24 17 -51 35 -61 41
-11 6 -27 18 -37 27 -10 9 -43 33 -74 54 -30 21 -88 61 -128 88 -40 28 -81 55
-91 61 -10 6 -27 18 -37 27 -19 17 -59 45 -187 132 -44 30 -118 82 -165 116
-47 33 -106 74 -132 91 -27 17 -48 35 -48 39 0 5 -4 9 -9 9 -5 0 -45 25 -88
55 -43 31 -113 79 -155 107 -43 29 -78 56 -78 60 0 4 -5 8 -10 8 -6 0 -37 19
-68 43 -31 23 -64 47 -73 52 -59 36 -157 106 -168 119 -7 9 -18 16 -23 16 -5
0 -35 19 -66 43 -31 23 -64 47 -73 52 -9 6 -36 24 -59 40 -24 17 -53 37 -65
45 -12 8 -53 36 -91 62 -39 26 -76 54 -83 62 -8 9 -19 16 -25 16 -7 0 -23 11
-36 25 -13 14 -29 25 -35 25 -7 0 -20 9 -30 20 -10 11 -22 20 -26 20 -5 0 -35
20 -68 45 -32 25 -64 45 -70 45 -5 0 -14 6 -18 13 -4 8 -39 35 -78 60 -38 26
-108 74 -155 108 -47 33 -110 77 -140 98 -30 20 -88 60 -128 89 -39 29 -76 52
-82 52 -5 0 -13 6 -17 13 -4 6 -35 30 -68 52 -33 22 -94 65 -135 95 -41 30
-82 60 -91 65 -85 54 -119 78 -119 86 0 5 -5 9 -10 9 -10 0 -128 79 -165 110
-11 9 -27 20 -35 24 -8 3 -35 22 -60 41 -25 19 -52 38 -60 42 -8 4 -43 28 -77
55 -34 26 -67 48 -71 48 -5 0 -16 7 -23 16 -7 9 -22 20 -34 25 -11 5 -40 25
-65 44 -25 19 -54 39 -65 45 -11 6 -40 26 -65 45 -25 19 -55 39 -67 44 -11 6
-24 15 -28 21 -6 9 -51 42 -104 75 -9 6 -42 29 -73 53 -31 23 -59 42 -62 42
-3 0 -34 21 -70 48 -134 98 -256 182 -265 182 -6 0 -14 6 -18 13 -4 6 -35 30
-68 52 -33 22 -94 64 -135 95 -41 31 -105 75 -142 99 -38 24 -68 48 -68 52 0
5 -5 9 -10 9 -11 0 -133 82 -166 111 -11 11 -24 19 -28 19 -4 0 -33 19 -64 42
-66 50 -182 128 -188 128 -2 0 -4 -44 -4 -97z"/>
<path d="M12812 12209 c-512 -512 -932 -936 -932 -943 0 -7 203 -179 451 -382
248 -203 467 -384 487 -401 21 -18 40 -33 43 -33 3 0 20 -13 36 -29 30 -28
136 -61 195 -61 13 0 79 -11 148 -24 259 -50 407 -76 468 -82 l62 -7 -2 1443
c-2 956 -6 1444 -13 1447 -6 2 -430 -416 -943 -928z"/>
<path d="M11621 12983 c-12 -21 -35 -56 -52 -78 -16 -22 -55 -78 -85 -125 -31
-47 -61 -92 -68 -101 -6 -9 -51 -74 -99 -145 -48 -71 -96 -140 -106 -154 -10
-14 -54 -78 -97 -143 -44 -65 -85 -126 -91 -135 -14 -19 -15 -19 315 -296 96
-81 191 -163 211 -184 60 -59 115 -102 131 -102 8 0 44 27 79 60 35 33 67 60
71 60 3 0 16 10 27 23 28 30 112 107 117 107 3 0 20 15 38 33 18 18 71 66 118
107 46 40 97 85 112 99 34 30 38 75 8 91 -11 6 -27 25 -36 43 -19 36 -78 130
-105 167 -10 14 -26 39 -34 55 -8 17 -28 50 -45 75 -16 25 -45 72 -65 105 -20
33 -46 74 -58 92 -12 17 -38 57 -57 89 -19 32 -51 83 -71 113 -19 31 -53 84
-75 118 -21 34 -44 62 -50 63 -6 0 -20 -17 -33 -37z"/>
<path d="M2717 9713 c-10 -9 -9 -6853 1 -6853 4 0 62 64 129 143 67 78 138
160 159 182 20 22 77 87 127 145 100 118 180 209 247 284 25 28 70 80 100 116
49 59 93 109 185 210 17 19 69 80 115 135 77 92 117 139 204 235 18 19 58 67
91 105 33 39 78 90 100 115 22 25 65 75 96 110 63 73 206 237 258 296 19 21
73 84 120 139 46 55 103 120 125 145 86 96 165 186 185 212 l21 26 0 1390 c0
1255 -2 1391 -16 1403 -9 7 -42 29 -74 48 -32 20 -98 63 -147 95 -91 61 -225
149 -348 228 -38 24 -83 53 -99 64 -16 10 -36 24 -45 29 -17 10 -157 102 -218
143 -19 13 -47 31 -62 40 -27 16 -74 47 -155 101 -21 14 -67 44 -101 66 -35
22 -82 54 -105 70 -66 46 -92 63 -131 84 -19 11 -41 27 -48 35 -8 9 -17 16
-22 16 -5 0 -38 20 -75 45 -36 25 -67 45 -69 45 -2 0 -52 33 -112 73 -112 75
-263 175 -292 192 -9 6 -31 20 -48 33 -17 12 -35 22 -39 22 -4 0 -17 9 -29 20
-12 11 -25 17 -28 13z"/>
</g>
</svg>
