<?xml version="1.0" standalone="no"?>
<!DOCTYPE svg PUBLIC "-//W3C//DTD SVG 20010904//EN"
 "http://www.w3.org/TR/2001/REC-SVG-20010904/DTD/svg10.dtd">
<svg version="1.0" xmlns="http://www.w3.org/2000/svg"
 width="1643.000000pt" height="1643.000000pt" viewBox="0 0 1643.000000 1643.000000"
 preserveAspectRatio="xMidYMid meet">
<metadata>
Created by potrace 1.14, written by Peter Selinger 2001-2017
</metadata>
<g transform="translate(0.000000,1643.000000) scale(0.100000,-0.100000)"
fill="#000000" stroke="none">
<path d="M5765 13155 c-8 -14 -23 -37 -32 -51 -25 -37 -34 -52 -68 -109 -16
-27 -32 -52 -35 -55 -4 -3 -13 -17 -21 -31 -44 -82 -59 -107 -73 -118 -9 -8
-16 -18 -16 -23 0 -6 -10 -24 -22 -41 -27 -38 -36 -52 -65 -105 -13 -22 -27
-43 -32 -47 -5 -3 -16 -18 -24 -33 -26 -50 -59 -107 -66 -112 -4 -3 -22 -32
-41 -65 -19 -33 -37 -62 -41 -65 -11 -8 -49 -80 -49 -94 0 -13 50 -61 180
-176 41 -36 87 -77 101 -92 15 -16 30 -28 34 -28 4 0 18 -10 30 -22 39 -40
108 -104 170 -157 61 -52 98 -63 119 -37 6 8 56 51 111 97 56 46 107 89 115
96 8 7 27 23 42 35 14 13 35 30 45 38 37 30 138 115 143 120 5 5 95 81 148
126 12 10 22 24 22 31 0 15 -45 90 -67 111 -7 7 -13 19 -13 27 0 7 -4 15 -8
17 -7 3 -58 72 -87 119 -36 58 -69 104 -76 107 -5 2 -9 9 -9 16 0 7 -9 21 -20
31 -11 10 -20 22 -20 26 0 8 -58 98 -71 109 -11 10 -69 101 -69 109 0 4 -9 16
-20 26 -11 10 -34 41 -50 69 -16 28 -36 60 -44 71 -9 11 -30 39 -46 63 -34 48
-53 53 -75 17z"/>
<path d="M9004 13160 c-5 -5 -29 -20 -54 -34 -62 -35 -127 -72 -175 -100 -22
-13 -71 -40 -110 -61 -38 -21 -72 -41 -75 -45 -3 -4 -34 -22 -70 -40 -36 -19
-79 -44 -97 -57 -17 -13 -39 -23 -47 -23 -9 0 -16 -4 -16 -8 0 -4 -19 -18 -42
-30 -24 -12 -65 -35 -93 -51 -27 -17 -72 -42 -100 -58 -27 -15 -57 -32 -67
-38 -9 -5 -58 -34 -110 -63 -51 -29 -106 -61 -123 -71 -50 -29 -128 -73 -160
-89 -16 -9 -32 -18 -35 -22 -3 -4 -34 -22 -70 -40 -36 -19 -72 -39 -80 -46 -8
-7 -46 -29 -85 -50 -38 -20 -77 -42 -85 -49 -8 -7 -28 -19 -45 -27 -32 -16
-150 -82 -175 -97 -29 -19 -196 -114 -260 -149 -36 -19 -72 -40 -80 -47 -8 -7
-28 -19 -45 -27 -61 -31 -130 -72 -133 -80 -2 -4 -11 -8 -20 -8 -8 0 -23 -6
-31 -14 -9 -8 -47 -31 -86 -52 -38 -20 -77 -42 -85 -49 -8 -7 -46 -29 -85 -50
-38 -21 -88 -48 -110 -61 -22 -13 -60 -35 -85 -49 -25 -14 -67 -39 -95 -55
-27 -17 -58 -33 -67 -36 -37 -13 -17 -42 70 -107 49 -36 94 -73 101 -81 8 -9
19 -16 26 -16 8 0 15 -3 17 -7 5 -13 157 -133 167 -133 5 0 11 -3 13 -8 2 -4
32 -30 68 -57 36 -28 69 -56 73 -62 4 -7 12 -13 17 -13 6 0 18 -6 27 -14 10
-8 38 -31 63 -50 25 -19 53 -42 63 -51 9 -8 21 -15 27 -15 5 0 13 -6 17 -13 4
-7 38 -35 75 -63 38 -27 68 -52 68 -56 0 -5 5 -8 10 -8 9 0 66 -43 158 -120
13 -11 26 -20 29 -20 5 0 54 -38 88 -68 11 -10 51 -40 88 -68 38 -27 78 -59
90 -71 11 -13 24 -23 29 -23 4 0 16 -6 25 -14 10 -8 38 -31 63 -50 25 -20 52
-43 61 -51 9 -8 21 -15 27 -15 6 0 15 -6 19 -13 4 -8 20 -22 35 -32 32 -20 66
-15 112 18 37 26 51 35 104 64 22 13 44 28 47 33 4 6 17 15 28 20 12 6 38 20
57 32 20 13 51 32 69 43 18 11 46 30 61 43 15 12 35 22 44 22 9 0 16 4 16 8 0
5 19 19 43 32 23 13 44 26 47 30 3 4 34 24 70 44 36 21 79 47 97 59 17 12 66
44 109 71 71 44 79 47 100 35 19 -12 778 -763 2415 -2389 258 -256 558 -554
669 -663 l200 -198 0 -985 c0 -775 3 -988 13 -999 6 -7 30 -38 52 -69 22 -31
43 -56 47 -56 4 0 8 -5 8 -12 0 -6 7 -20 17 -30 9 -10 21 -26 27 -36 18 -30
79 -113 109 -148 15 -17 27 -37 27 -43 0 -6 4 -11 8 -11 4 0 25 -25 47 -55 76
-106 184 -250 200 -266 8 -9 15 -21 15 -27 0 -5 3 -12 8 -14 11 -5 132 -168
132 -179 0 -5 3 -9 8 -9 4 0 21 -20 37 -45 17 -24 33 -45 38 -45 4 0 7 -7 7
-15 0 -7 6 -18 13 -22 8 -4 33 -36 56 -69 22 -34 48 -67 56 -74 8 -7 15 -18
15 -24 0 -6 8 -19 18 -27 16 -15 135 -172 157 -208 6 -9 21 -30 35 -48 51 -65
186 -246 205 -275 28 -41 83 -115 108 -144 15 -17 27 -37 27 -43 0 -6 4 -11 8
-11 4 0 25 -25 47 -55 58 -81 182 -248 197 -265 7 -8 18 -22 23 -31 6 -10 38
-54 73 -99 34 -45 62 -83 62 -86 0 -11 45 -54 57 -54 11 0 13 542 13 3117 l0
3118 -52 47 c-28 27 -55 48 -59 48 -5 0 -16 11 -25 25 -9 14 -21 25 -27 25 -5
0 -19 10 -31 23 -28 28 -80 75 -176 156 -41 35 -84 72 -95 82 -70 63 -142 128
-300 264 -55 48 -104 93 -108 101 -4 8 -13 14 -18 14 -6 0 -23 13 -39 28 -15
16 -47 44 -70 63 -23 19 -54 45 -69 59 -15 14 -53 48 -85 75 -32 28 -70 61
-85 75 -15 14 -49 43 -75 65 -26 22 -60 51 -75 65 -15 14 -54 48 -85 75 -111
96 -150 130 -172 153 -12 12 -25 22 -29 22 -4 0 -19 12 -34 28 -14 15 -55 52
-91 82 -35 30 -79 70 -98 88 -19 17 -38 32 -43 32 -5 0 -16 11 -25 25 -9 14
-21 25 -27 25 -5 0 -19 10 -31 23 -28 28 -82 76 -176 156 -41 35 -82 71 -91
80 -10 9 -38 34 -64 56 -26 22 -59 51 -74 66 -14 14 -55 49 -91 79 -36 30 -75
63 -87 74 -12 12 -43 39 -69 61 -26 22 -57 50 -69 63 -12 12 -27 22 -34 22 -6
0 -11 4 -11 8 0 5 -52 53 -115 108 -63 54 -115 102 -115 107 0 4 -6 7 -13 7
-7 0 -24 12 -37 28 -14 15 -47 45 -74 67 -26 22 -60 51 -75 65 -15 14 -54 48
-85 75 -111 96 -150 130 -172 153 -12 12 -26 22 -32 22 -6 0 -15 7 -19 15 -5
8 -33 35 -63 61 -127 108 -176 151 -201 177 -15 15 -30 27 -34 27 -4 0 -17 10
-29 23 -22 22 -35 33 -166 146 -90 78 -84 72 -216 191 -21 19 -72 64 -114 99
-41 35 -83 71 -92 80 -9 9 -38 34 -64 56 -26 22 -56 49 -68 61 -97 97 -175
141 -202 114z"/>
<path d="M2590 13043 c0 -60 9 -292 20 -518 11 -225 25 -567 30 -760 5 -192
14 -435 20 -540 6 -104 15 -343 20 -530 12 -439 21 -615 31 -615 5 0 38 -20
75 -45 36 -25 68 -45 71 -45 3 0 21 -11 39 -25 18 -14 35 -25 38 -25 2 0 33
-19 68 -42 78 -53 86 -58 135 -85 22 -12 45 -29 52 -37 8 -9 18 -16 23 -16 6
0 24 -10 41 -22 35 -25 43 -30 116 -72 28 -16 51 -33 51 -38 0 -4 5 -8 10 -8
6 0 41 -20 79 -45 38 -25 73 -45 80 -45 6 0 11 -4 11 -9 0 -5 15 -16 33 -24
18 -9 43 -25 56 -36 13 -12 29 -21 35 -21 6 0 23 -11 38 -25 15 -14 34 -25 41
-25 8 0 20 -7 28 -16 7 -8 29 -24 48 -35 42 -22 52 -29 139 -86 35 -24 65 -43
68 -43 3 0 17 -8 32 -19 25 -17 157 -103 193 -126 9 -5 34 -20 56 -32 22 -12
45 -29 52 -37 8 -9 22 -16 32 -16 11 0 19 -4 19 -8 0 -5 19 -19 43 -32 23 -13
48 -30 55 -37 7 -7 18 -13 23 -13 5 0 15 -5 22 -10 28 -23 197 -130 207 -130
5 0 10 -4 10 -8 0 -5 12 -15 28 -22 15 -8 40 -23 57 -35 38 -26 53 -35 102
-62 22 -12 45 -29 52 -37 8 -9 17 -16 22 -16 5 0 55 -30 112 -67 56 -38 107
-70 112 -73 6 -3 24 -14 40 -24 17 -11 60 -39 97 -63 37 -24 71 -43 76 -43 4
0 17 -8 28 -18 10 -10 38 -29 62 -42 23 -13 42 -27 42 -32 0 -4 9 -8 20 -8 11
0 20 -4 20 -8 0 -5 19 -19 43 -32 23 -13 48 -30 55 -37 7 -7 20 -13 28 -13 8
0 14 -4 14 -9 0 -5 13 -14 29 -21 16 -6 37 -20 48 -29 10 -10 30 -24 45 -32
88 -48 106 -59 117 -73 8 -9 18 -16 23 -16 6 0 24 -10 41 -22 38 -27 52 -36
104 -65 22 -12 45 -29 52 -37 8 -9 17 -16 22 -16 5 0 46 -24 92 -54 45 -29 96
-61 112 -70 34 -19 87 -55 127 -85 14 -12 33 -21 42 -21 9 0 16 -4 16 -8 0 -5
20 -19 45 -32 25 -13 45 -27 45 -31 0 -4 9 -11 21 -14 11 -4 56 -30 99 -58 43
-29 117 -77 165 -107 48 -30 99 -63 113 -72 15 -10 43 -26 63 -37 19 -11 41
-27 48 -35 8 -9 18 -16 23 -16 8 0 111 -64 180 -111 15 -11 29 -19 32 -19 2 0
37 -22 78 -50 40 -27 79 -50 86 -50 6 0 12 -4 12 -9 0 -5 13 -14 29 -21 16 -6
37 -19 48 -29 10 -10 48 -34 85 -55 36 -20 72 -43 78 -51 7 -8 17 -15 23 -15
5 0 25 -11 43 -25 18 -14 35 -25 38 -25 3 0 35 -20 72 -45 36 -25 67 -45 70
-45 3 0 17 -8 32 -19 15 -10 59 -38 97 -62 39 -24 80 -50 90 -57 11 -7 33 -20
49 -30 16 -9 41 -27 56 -39 15 -13 35 -23 44 -23 9 0 16 -4 16 -8 0 -5 19 -19
43 -32 23 -13 44 -26 47 -30 3 -4 37 -26 75 -49 116 -70 179 -109 192 -120 19
-17 83 -51 95 -51 13 0 80 68 183 184 39 44 89 99 113 123 23 24 42 47 42 50
0 3 19 25 42 48 24 23 75 78 113 121 141 157 179 199 201 224 13 14 44 48 69
75 25 28 63 69 85 92 22 23 40 44 40 46 0 3 19 24 43 49 23 24 74 79 112 123
39 44 91 101 117 128 27 27 48 51 48 54 0 3 19 25 43 48 23 24 51 54 63 67
158 177 222 249 250 277 19 18 34 39 34 46 0 6 -37 45 -82 86 -46 41 -105 95
-132 121 -26 27 -51 48 -54 48 -3 0 -24 20 -48 45 -23 25 -45 45 -49 45 -4 0
-28 21 -53 46 -72 70 -119 113 -222 205 -106 94 -159 143 -225 207 -24 23 -47
42 -52 42 -4 0 -26 21 -47 45 -22 25 -42 45 -45 45 -3 0 -51 43 -106 95 -55
51 -111 100 -124 107 -21 11 -26 9 -57 -25 -19 -20 -37 -37 -41 -37 -4 0 -45
-39 -92 -87 -47 -49 -105 -105 -130 -125 l-44 -37 -31 22 c-17 11 -33 24 -36
27 -3 3 -32 23 -65 45 -33 21 -64 45 -68 52 -4 7 -12 13 -17 13 -9 0 -106 65
-120 80 -3 3 -12 10 -21 15 -70 43 -165 111 -172 122 -4 7 -13 13 -18 13 -6 0
-36 19 -67 43 -32 24 -64 46 -72 50 -8 4 -35 23 -60 42 -25 19 -55 39 -67 44
-11 6 -24 14 -28 20 -5 9 -93 71 -164 116 -9 6 -18 13 -21 16 -5 6 -79 56
-112 75 -10 6 -29 20 -41 31 -12 10 -42 32 -67 48 -25 17 -47 33 -50 36 -5 5
-131 90 -169 114 -9 6 -18 12 -21 15 -14 16 -111 80 -120 80 -6 0 -10 4 -10
10 0 5 -20 21 -45 36 -25 14 -45 30 -45 35 0 5 -6 9 -14 9 -8 0 -21 6 -28 13
-7 7 -42 33 -78 57 -36 24 -67 46 -70 50 -3 3 -35 26 -72 50 -38 24 -68 48
-68 52 0 4 -4 8 -10 8 -9 0 -106 64 -120 80 -3 3 -12 10 -21 15 -70 43 -165
111 -172 122 -4 7 -12 13 -18 13 -5 0 -36 19 -67 43 -31 23 -64 47 -73 52 -41
26 -104 69 -109 74 -3 3 -12 11 -21 16 -73 46 -158 106 -168 119 -8 9 -19 16
-25 16 -7 0 -23 11 -36 25 -13 14 -29 25 -35 25 -7 0 -20 9 -30 20 -10 11 -22
20 -26 20 -5 0 -35 20 -68 45 -32 25 -64 45 -70 45 -5 0 -14 6 -18 13 -7 11
-102 79 -172 122 -9 6 -18 13 -21 16 -12 14 -111 79 -120 79 -5 0 -10 4 -10 9
0 4 -30 28 -67 52 -38 23 -70 45 -73 49 -12 13 -111 80 -120 80 -5 0 -13 6
-17 13 -4 6 -35 30 -68 52 -75 50 -198 138 -205 146 -3 4 -15 9 -27 13 -13 4
-23 11 -23 16 0 4 -20 20 -45 34 -25 15 -45 31 -45 36 0 6 -6 10 -13 10 -7 0
-22 7 -32 15 -26 20 -147 107 -167 120 -8 6 -35 23 -59 39 -24 16 -45 33 -47
37 -2 5 -8 9 -13 9 -8 0 -71 45 -122 86 -9 8 -21 14 -26 14 -5 0 -15 7 -22 16
-7 9 -22 20 -34 25 -11 5 -40 25 -65 44 -25 19 -54 39 -65 45 -11 6 -40 26
-65 45 -25 19 -54 39 -65 44 -12 5 -27 16 -34 25 -8 9 -31 26 -52 38 -22 12
-39 25 -39 30 0 4 -6 8 -13 8 -8 0 -22 9 -32 20 -10 11 -22 20 -27 20 -5 0
-21 11 -36 25 -15 14 -32 25 -38 25 -6 0 -19 9 -29 20 -10 11 -24 20 -32 20
-7 0 -13 3 -13 8 0 4 -30 27 -68 52 -37 24 -69 47 -72 50 -13 14 -111 80 -120
80 -5 0 -13 6 -17 13 -4 6 -35 30 -68 52 -78 52 -196 137 -213 153 -7 6 -20
12 -28 12 -8 0 -14 4 -14 9 0 5 -20 21 -45 35 -25 15 -45 31 -45 36 0 6 -6 10
-14 10 -8 0 -21 6 -28 13 -7 6 -40 30 -73 52 -33 22 -64 46 -68 53 -4 6 -12
12 -17 12 -9 0 -106 65 -120 80 -17 18 -133 90 -145 90 -12 0 -15 -20 -15
-107z"/>
<path d="M12814 12215 c-511 -514 -929 -942 -929 -950 0 -8 198 -178 440 -376
242 -199 460 -377 484 -397 24 -21 50 -41 57 -45 8 -4 25 -19 37 -31 23 -23
136 -56 189 -56 13 0 79 -11 148 -24 259 -50 407 -76 468 -82 l62 -7 0 1452
c0 1211 -2 1451 -13 1451 -8 0 -432 -421 -943 -935z"/>
<path d="M11611 12983 c-17 -27 -36 -57 -43 -67 -7 -11 -23 -31 -35 -45 -13
-14 -23 -31 -23 -37 0 -6 -9 -19 -20 -29 -11 -10 -20 -21 -20 -26 0 -11 -70
-114 -81 -117 -5 -2 -9 -8 -9 -12 0 -5 -20 -38 -45 -74 -25 -37 -45 -69 -45
-71 0 -3 -22 -35 -50 -70 -27 -35 -50 -67 -50 -70 0 -2 -20 -34 -45 -71 -25
-36 -45 -69 -45 -74 0 -4 -3 -10 -8 -12 -4 -1 -24 -27 -45 -56 -36 -50 -48
-92 -27 -92 6 0 18 -8 28 -17 9 -10 44 -40 77 -68 33 -27 62 -52 65 -55 3 -3
46 -39 95 -80 50 -41 92 -77 95 -80 3 -3 32 -27 65 -55 33 -27 65 -54 71 -60
6 -5 26 -21 43 -35 17 -14 48 -40 68 -57 21 -18 45 -33 53 -33 8 0 44 27 79
60 35 33 67 60 71 60 3 0 16 10 27 23 28 30 112 107 117 107 3 0 20 15 38 33
18 18 71 66 118 107 46 40 97 85 112 99 31 27 37 71 13 91 -8 6 -31 42 -51 78
-21 37 -40 69 -44 72 -4 3 -17 24 -30 48 -13 23 -27 42 -31 42 -4 0 -11 10
-15 22 -4 13 -15 34 -24 48 -48 70 -110 170 -110 178 0 5 -7 15 -16 23 -8 7
-25 30 -37 52 -31 55 -45 80 -56 97 -47 69 -81 123 -105 165 -16 28 -32 52
-36 55 -4 3 -12 15 -19 28 -18 33 -36 27 -70 -25z"/>
<path d="M2707 9723 c-4 -3 -7 -1551 -7 -3440 0 -3397 0 -3433 20 -3433 10 0
23 6 27 14 9 16 79 99 109 130 11 11 45 50 74 86 30 36 64 76 77 90 74 81 100
111 118 132 11 12 49 57 84 98 35 41 70 82 77 90 8 8 33 37 56 64 24 27 52 59
63 70 11 11 58 66 104 121 46 55 91 107 100 116 9 9 34 37 56 63 22 26 54 62
70 80 17 18 77 88 135 156 58 69 117 137 133 151 15 15 27 32 27 38 0 6 4 11
9 11 5 0 29 25 55 56 56 68 153 180 184 212 12 12 22 27 22 31 0 5 11 16 25
25 14 9 25 20 25 25 0 5 15 24 33 43 17 18 57 62 87 98 30 36 67 77 83 93 15
16 27 32 27 37 0 4 11 15 25 24 14 9 25 23 25 31 0 8 4 15 8 15 4 0 28 25 53
54 96 114 155 181 182 207 15 15 27 30 27 33 0 3 20 27 45 53 l45 47 -2 1405
-3 1405 -45 27 c-79 49 -86 53 -131 83 -24 16 -46 32 -49 35 -6 8 -35 25 -81
50 -19 11 -41 27 -48 35 -8 9 -17 16 -22 16 -4 0 -37 20 -73 45 -37 25 -68 45
-70 45 -3 0 -33 19 -68 43 -35 23 -71 47 -80 52 -8 6 -41 27 -72 48 -31 20
-60 37 -65 37 -5 0 -11 4 -13 8 -3 9 -28 27 -130 92 -74 48 -79 51 -124 81
-95 63 -131 87 -189 124 -94 60 -149 97 -155 104 -6 8 -35 25 -81 50 -19 11
-41 27 -48 35 -8 9 -17 16 -22 16 -5 0 -38 20 -75 45 -36 25 -67 45 -70 45 -2
0 -33 20 -70 45 -36 25 -69 45 -74 45 -4 0 -10 4 -12 8 -4 11 -115 82 -127 82
-5 0 -11 4 -13 9 -3 7 -53 43 -107 76 -9 6 -31 20 -48 33 -17 12 -35 22 -40
22 -6 0 -18 9 -28 20 -18 20 -36 25 -48 13z"/>
</g>
</svg>
