<?xml version="1.0" standalone="no"?>
<!DOCTYPE svg PUBLIC "-//W3C//DTD SVG 20010904//EN"
 "http://www.w3.org/TR/2001/REC-SVG-20010904/DTD/svg10.dtd">
<svg version="1.0" xmlns="http://www.w3.org/2000/svg"
 width="1320.000000pt" height="1320.000000pt" viewBox="0 0 1320.000000 1320.000000"
 preserveAspectRatio="xMidYMid meet">
<metadata>
Created by potrace 1.11, written by Peter Selinger 2001-2013
</metadata>
<g transform="translate(0.000000,1320.000000) scale(0.100000,-0.100000)"
fill="#000000" stroke="none">
<path d="M12675 11418 c-95 -30 -204 -116 -253 -198 -50 -85 -67 -235 -38
-331 60 -199 233 -321 432 -306 183 14 339 163 374 358 10 56 9 80 -4 144 -29
142 -107 245 -230 305 -59 29 -78 33 -159 35 -51 2 -105 -2 -122 -7z m233
-141 c50 -27 111 -93 135 -146 26 -58 29 -187 4 -241 -43 -96 -109 -151 -216
-180 -105 -28 -249 47 -307 160 -27 53 -31 188 -9 247 23 59 86 128 145 158
38 20 58 23 130 21 59 -1 95 -7 118 -19z"/>
<path d="M299 11405 c-99 -36 -170 -90 -223 -169 -50 -75 -67 -128 -70 -215
-7 -182 76 -329 230 -407 75 -38 80 -39 178 -39 94 0 106 3 168 33 111 54 191
146 228 262 23 69 18 202 -8 274 -44 115 -111 188 -222 240 -56 27 -77 31
-155 33 -53 1 -105 -4 -126 -12z m247 -145 c91 -52 142 -132 151 -238 6 -81
-7 -135 -50 -198 -78 -117 -225 -160 -347 -102 -60 29 -110 80 -141 144 -28
60 -31 74 -27 143 8 171 119 279 288 280 65 1 82 -3 126 -29z"/>
<path d="M6550 10253 c-123 -26 -250 -138 -298 -263 -83 -216 20 -456 235
-552 38 -16 69 -21 148 -21 92 -1 106 2 168 30 152 71 247 219 247 388 0 179
-101 331 -265 400 -40 17 -187 28 -235 18z m162 -130 c203 -57 279 -326 137
-487 -58 -66 -115 -90 -214 -90 -64 -1 -88 4 -122 22 -238 126 -202 486 55
557 63 18 73 18 144 -2z"/>
<path d="M12494 10212 c-140 -120 -221 -189 -304 -262 -53 -47 -141 -123 -195
-170 -99 -86 -260 -227 -281 -245 -6 -5 -55 -48 -109 -95 -54 -47 -124 -107
-155 -135 -31 -27 -85 -75 -120 -105 -36 -30 -90 -77 -121 -105 -30 -27 -98
-86 -149 -130 -51 -44 -118 -102 -149 -129 -31 -27 -82 -72 -115 -100 -32 -28
-84 -73 -115 -101 -32 -27 -100 -86 -151 -130 -51 -44 -100 -87 -110 -95 -58
-53 -177 -158 -216 -190 l-47 -39 -38 47 c-22 26 -39 50 -39 54 0 3 27 30 60
59 33 29 60 56 60 61 0 5 -32 44 -72 86 -109 117 -173 188 -293 323 -60 67
-139 155 -175 194 -36 39 -103 113 -150 165 -47 52 -112 123 -144 157 l-59 63
-46 -42 c-84 -76 -275 -252 -366 -338 -50 -47 -134 -125 -188 -173 -53 -49
-97 -93 -97 -98 0 -6 21 -35 48 -65 42 -50 53 -74 28 -66 -4 1 -15 -3 -24 -10
-10 -8 -13 -9 -9 -1 4 6 -11 3 -32 -8 -22 -10 -45 -19 -51 -19 -5 0 -10 -5
-10 -12 0 -7 -17 5 -38 25 -21 20 -41 37 -44 37 -3 0 -28 -21 -56 -47 -27 -27
-123 -115 -213 -198 -90 -82 -194 -179 -231 -214 l-68 -64 57 -60 57 -60 -83
-79 c-46 -43 -87 -78 -91 -78 -3 0 -56 46 -116 103 -61 56 -184 170 -274 252
-90 83 -203 186 -250 230 -47 44 -159 148 -250 230 -189 173 -182 167 -238
228 -23 26 -49 47 -57 47 -8 0 -31 -20 -51 -45 -21 -24 -107 -108 -193 -187
-85 -79 -194 -179 -241 -223 -47 -44 -139 -129 -205 -190 -65 -60 -171 -159
-235 -218 -137 -130 -170 -155 -170 -133 0 8 -9 18 -20 21 -11 4 -18 11 -15
16 4 5 0 9 -8 9 -8 0 -20 6 -26 14 -9 11 -2 25 38 67 l49 54 -48 45 c-26 25
-97 90 -156 145 -60 55 -120 111 -134 125 -14 14 -72 68 -129 120 l-104 95
-59 -65 -59 -64 -56 57 -57 56 53 61 c29 33 51 64 49 68 -4 10 -159 156 -358
337 -91 83 -201 185 -246 228 -44 42 -85 77 -91 77 -8 0 -166 -163 -183 -190
-5 -7 -37 -42 -240 -265 -36 -39 -114 -127 -175 -195 -60 -67 -152 -168 -203
-224 -50 -55 -92 -104 -92 -109 0 -5 27 -34 60 -64 l60 -56 -32 -40 c-18 -22
-53 -62 -78 -89 l-45 -50 -71 64 c-39 35 -113 99 -164 143 -52 44 -117 100
-145 125 -29 25 -94 81 -145 125 -51 44 -97 85 -104 90 -75 67 -168 148 -195
171 -19 16 -60 52 -92 79 -31 28 -96 84 -144 125 -49 41 -114 98 -145 125 -31
28 -69 61 -86 75 -25 22 -73 63 -213 185 -19 17 -60 53 -91 80 -31 28 -96 84
-145 125 -48 41 -113 98 -145 125 -31 28 -99 86 -150 130 -51 44 -103 89 -114
100 -12 11 -37 34 -57 50 -20 17 -84 72 -143 123 -59 52 -110 91 -113 89 -5
-6 6 -52 53 -227 14 -52 41 -153 59 -225 58 -220 62 -235 69 -242 3 -3 24 -1
47 6 40 12 42 11 89 -26 78 -63 241 -205 238 -208 -2 -2 -66 -20 -143 -40 -77
-20 -143 -40 -147 -44 -5 -4 1 -40 13 -81 11 -41 36 -133 54 -205 19 -71 46
-175 60 -230 15 -55 28 -107 30 -115 2 -8 15 -60 30 -115 15 -55 37 -140 50
-190 13 -49 31 -117 40 -150 9 -33 23 -85 30 -115 7 -30 22 -91 35 -135 21
-76 38 -142 45 -175 3 -15 22 -86 64 -240 11 -41 21 -78 21 -82 0 -5 79 -8
175 -8 l175 0 -6 28 c-21 86 -78 303 -154 587 -12 44 -23 87 -25 95 -5 24 -22
88 -45 175 -12 44 -27 105 -34 135 -8 30 -23 91 -35 135 -13 44 -33 121 -46
170 -13 50 -33 126 -45 170 -12 44 -23 87 -25 95 -2 8 -18 69 -35 135 -18 66
-35 131 -38 145 l-5 25 29 -26 c16 -14 67 -59 114 -100 47 -40 90 -78 96 -84
6 -5 51 -44 100 -85 48 -41 113 -97 144 -125 31 -27 99 -86 150 -130 52 -44
117 -100 145 -125 28 -25 82 -72 120 -105 38 -33 92 -80 120 -105 28 -25 93
-81 145 -125 51 -44 119 -102 150 -130 31 -27 99 -86 150 -130 51 -44 103 -89
114 -100 12 -11 37 -33 56 -49 19 -15 64 -54 99 -85 36 -31 88 -76 116 -101
28 -25 93 -81 145 -125 51 -44 119 -102 150 -130 31 -27 85 -75 120 -105 36
-30 87 -75 115 -100 28 -25 96 -83 150 -130 54 -47 122 -105 150 -130 28 -25
96 -83 150 -130 54 -47 122 -105 150 -130 118 -105 178 -156 191 -163 15 -9
86 50 269 222 145 137 239 224 405 376 90 83 205 188 255 234 209 196 249 233
405 376 90 83 203 186 250 230 47 44 139 130 205 190 65 61 161 150 213 198
51 49 97 87 102 85 8 -3 225 -200 410 -373 47 -44 160 -147 250 -230 90 -82
203 -186 250 -230 47 -44 137 -127 200 -185 63 -57 142 -131 176 -165 33 -33
87 -82 120 -110 32 -27 99 -88 149 -135 50 -47 163 -150 250 -230 87 -80 187
-172 222 -204 l63 -59 57 49 c66 56 103 88 183 159 31 28 99 86 150 130 52 44
119 103 150 130 77 69 132 117 240 210 52 44 119 103 150 130 30 28 84 75 120
105 35 30 89 78 120 105 31 28 99 86 150 130 51 44 103 89 116 100 12 11 100
88 195 170 95 83 216 188 269 235 53 47 141 123 195 170 89 77 253 219 281
245 6 6 53 46 104 90 52 44 119 103 150 130 31 28 85 75 120 105 36 30 90 78
121 105 61 55 139 122 240 208 l66 56 -13 -52 c-7 -29 -22 -88 -34 -132 -12
-44 -27 -105 -34 -135 -8 -30 -28 -109 -45 -175 -18 -66 -41 -151 -51 -190
-10 -38 -33 -124 -51 -190 -17 -66 -36 -138 -41 -160 -13 -55 -14 -60 -38
-150 -26 -96 -41 -155 -45 -175 -2 -8 -15 -60 -30 -115 -24 -90 -40 -150 -89
-340 -9 -32 -16 -63 -16 -67 0 -4 78 -8 173 -8 l173 0 18 68 c10 37 24 92 31
122 7 30 22 89 34 130 18 65 26 95 46 180 2 8 11 42 20 75 37 135 86 325 171
655 90 348 103 397 129 494 14 54 24 104 22 110 -3 6 -44 22 -93 34 -49 13
-114 31 -144 39 l-54 15 44 41 c101 93 233 202 243 201 7 -1 30 -4 52 -8 l41
-7 19 73 c11 40 20 78 21 83 1 6 16 64 34 130 18 66 33 127 35 135 13 59 65
251 71 261 12 20 -15 14 -42 -9z"/>
<path d="M4124 9906 c-73 -34 -124 -110 -124 -187 0 -37 33 -111 62 -139 33
-32 97 -60 140 -60 53 0 121 33 154 74 83 104 49 256 -69 312 -65 30 -99 30
-163 0z m153 -71 c107 -71 55 -245 -74 -245 -119 0 -176 145 -90 228 18 16 41
32 52 35 31 8 85 0 112 -18z"/>
<path d="M9215 9912 c-125 -60 -163 -212 -78 -311 47 -55 80 -71 151 -71 65 0
104 15 144 57 117 122 44 324 -123 339 -40 4 -64 0 -94 -14z m139 -67 c92 -44
86 -201 -9 -241 -45 -18 -69 -18 -112 3 -48 22 -73 66 -73 127 0 43 4 53 39
87 33 33 45 39 81 39 23 0 56 -7 74 -15z"/>
<path d="M6590 6785 c-58 -41 -113 -80 -124 -87 -15 -11 -87 -66 -93 -72 -1 0
6 -12 16 -25 20 -26 33 -23 101 29 125 95 212 151 227 146 15 -6 122 -74 184
-117 26 -17 26 -17 47 10 l21 28 -62 40 c-146 95 -192 123 -202 123 -6 0 -58
-34 -115 -75z"/>
<path d="M6984 6644 c-11 -16 -14 -28 -7 -32 5 -4 57 -38 116 -75 101 -65 105
-69 97 -95 -9 -29 -46 -146 -80 -257 -13 -38 -38 -115 -56 -170 -45 -131 -44
-145 1 -145 24 0 35 5 35 15 0 8 15 61 34 117 18 57 50 157 71 223 20 66 49
153 62 193 14 41 22 77 17 81 -26 21 -260 171 -269 171 -2 0 -12 -12 -21 -26z"/>
<path d="M6297 6576 c-83 -57 -147 -107 -147 -116 0 -6 4 -18 9 -28 16 -31 29
-65 77 -197 25 -71 50 -134 55 -139 5 -6 9 -17 9 -26 0 -9 6 -24 13 -34 11
-15 17 -16 40 -5 21 10 26 17 21 33 -11 37 -125 340 -135 358 -5 10 -9 19 -9
22 0 2 32 24 70 50 39 26 70 50 70 54 0 4 -8 17 -18 30 l-18 23 -37 -25z"/>
<path d="M11237 6572 c-3 -4 -16 -50 -30 -102 -14 -52 -40 -149 -58 -215 -17
-66 -37 -145 -45 -175 -7 -30 -22 -91 -34 -135 -12 -44 -27 -105 -34 -135 -8
-30 -28 -109 -45 -175 -52 -194 -83 -309 -86 -325 -2 -8 -13 -49 -24 -90 -12
-41 -26 -95 -32 -120 -21 -90 -55 -221 -62 -240 -3 -8 -8 -27 -11 -42 l-6 -28
-1443 -2 -1442 -3 -3 -167 -2 -168 1574 0 1575 0 7 22 c7 23 54 206 69 268 2
8 11 42 20 75 31 116 95 357 165 630 83 323 111 431 129 497 11 40 36 136 56
213 20 77 50 192 67 255 17 63 32 127 35 143 l4 27 -170 0 c-93 0 -172 -3
-174 -8z"/>
<path d="M1760 6559 c0 -6 12 -54 26 -107 14 -54 38 -146 54 -207 60 -233 109
-422 125 -480 9 -33 28 -103 41 -155 14 -52 34 -129 45 -170 22 -84 24 -89 37
-145 9 -36 25 -97 102 -390 50 -189 60 -225 85 -320 15 -55 28 -107 30 -115 2
-13 186 -15 1579 -18 l1576 -2 -2 167 -3 168 -1442 3 -1443 2 -6 28 c-3 15
-14 56 -24 92 -10 36 -32 119 -49 185 -17 66 -40 154 -52 195 -11 41 -22 82
-24 90 -2 8 -18 69 -35 135 -18 66 -38 145 -46 175 -7 30 -21 89 -32 130 -12
41 -32 118 -45 170 -14 52 -33 122 -42 155 -39 142 -98 372 -102 398 l-5 27
-174 0 c-120 0 -174 -3 -174 -11z"/>
<path d="M6352 5993 c-17 -3 -22 -9 -17 -21 4 -9 16 -41 28 -70 l20 -54 196 7
c275 9 393 14 396 17 2 2 1 15 -2 30 l-5 28 -271 -3 -270 -2 -12 35 c-12 36
-22 41 -63 33z"/>
<path d="M12310 5760 c0 -5 5 -10 11 -10 5 0 7 5 4 10 -3 6 -8 10 -11 10 -2 0
-4 -4 -4 -10z"/>
<path d="M5770 4620 l0 -170 900 0 900 0 0 170 0 170 -900 0 -900 0 0 -170z"/>
<path d="M9341 3064 c-200 -40 -344 -181 -344 -339 0 -76 26 -138 88 -204 74
-79 160 -116 330 -140 44 -7 94 -15 110 -17 17 -3 44 -8 60 -10 50 -7 131 -52
168 -94 77 -84 74 -187 -8 -271 -71 -74 -162 -107 -290 -107 -123 0 -211 30
-283 96 -45 42 -72 89 -72 127 0 31 -4 31 -58 3 -39 -21 -42 -25 -36 -53 11
-50 34 -87 90 -141 219 -214 652 -166 785 87 35 66 34 185 -3 254 -69 131
-192 195 -433 224 -182 22 -253 55 -312 145 -87 130 3 283 198 335 72 20 231
10 303 -18 78 -31 151 -104 167 -166 6 -25 16 -45 21 -45 5 0 27 9 49 20 33
18 39 25 34 43 -39 132 -176 239 -348 272 -94 18 -119 18 -216 -1z"/>
<path d="M3930 3046 c-127 -38 -203 -85 -295 -183 -65 -68 -110 -143 -142
-235 -22 -63 -26 -90 -26 -198 0 -104 3 -136 22 -190 61 -175 178 -310 334
-385 55 -27 118 -49 157 -55 36 -5 181 -10 323 -10 l257 0 0 315 0 315 -261 0
-260 0 3 -47 3 -48 205 0 205 0 2 -217 2 -218 -224 0 c-209 0 -228 2 -294 24
-95 32 -152 67 -220 135 -101 101 -152 221 -156 365 -5 217 103 398 296 496
77 40 139 53 244 53 88 0 110 -4 182 -32 76 -30 168 -88 186 -118 12 -20 26
-16 63 16 l33 30 -58 53 c-149 138 -386 193 -581 134z"/>
<path d="M5391 2985 c-22 -47 -41 -88 -41 -90 0 -2 -29 -65 -65 -140 -36 -76
-65 -139 -65 -141 0 -2 -29 -64 -65 -139 -36 -75 -65 -138 -65 -140 0 -2 -25
-56 -55 -121 -31 -66 -75 -159 -98 -209 -23 -49 -54 -115 -68 -145 -15 -30
-25 -58 -22 -62 2 -5 26 -8 52 -8 45 0 50 2 64 33 28 59 103 221 118 255 l14
32 332 0 332 0 7 -22 c4 -13 20 -52 37 -88 16 -36 38 -85 49 -110 46 -109 37
-100 95 -100 29 0 53 2 53 5 0 7 -45 114 -75 180 -37 80 -68 149 -140 315 -37
85 -80 183 -96 218 -16 35 -29 65 -29 68 0 2 -16 38 -35 80 -19 41 -35 77 -35
80 0 2 -15 36 -34 76 -18 40 -50 111 -71 158 -20 47 -40 89 -45 93 -4 5 -26
-30 -49 -78z m84 -245 c21 -47 51 -113 66 -148 16 -34 29 -64 29 -67 0 -2 16
-39 36 -82 20 -43 40 -87 44 -98 5 -11 20 -46 34 -77 l26 -58 -281 0 -280 0 7
23 c4 12 33 78 65 146 33 67 59 125 59 126 0 2 22 51 49 108 28 57 61 130 76
162 14 32 27 56 29 54 2 -2 20 -42 41 -89z"/>
<path d="M6269 3066 c-2 -2 -3 -76 -2 -163 1 -87 2 -373 2 -635 l1 -478 45 0
45 0 0 492 0 492 23 -32 c12 -18 44 -62 70 -99 50 -71 303 -427 404 -570 32
-45 60 -82 63 -83 3 0 20 22 38 48 18 26 55 79 82 117 27 39 74 106 105 150
204 290 251 356 283 405 l37 55 3 -488 2 -487 50 0 50 0 0 640 c0 373 -4 640
-9 640 -5 0 -18 -15 -29 -32 -11 -18 -42 -64 -69 -103 -28 -38 -97 -137 -154
-220 -140 -200 -185 -265 -252 -360 -31 -44 -73 -104 -93 -133 -20 -29 -41
-51 -46 -50 -10 4 -47 54 -199 273 -34 49 -66 94 -71 100 -10 11 -70 96 -140
195 -237 340 -232 333 -239 326z"/>
<path d="M7930 2425 l0 -635 410 0 c357 0 410 2 411 15 1 8 1 26 1 40 0 14 0
32 -1 40 -1 13 -48 15 -361 15 l-360 0 0 235 0 235 280 0 c154 0 280 3 281 8
2 10 2 64 0 85 -1 16 -21 17 -281 17 l-280 0 0 240 0 240 360 0 360 0 0 50 0
50 -410 0 -410 0 0 -635z"/>
</g>
</svg>
