<?xml version="1.0" standalone="no"?>
<!DOCTYPE svg PUBLIC "-//W3C//DTD SVG 20010904//EN"
 "http://www.w3.org/TR/2001/REC-SVG-20010904/DTD/svg10.dtd">
<svg version="1.0" xmlns="http://www.w3.org/2000/svg"
 width="1643.000000pt" height="1643.000000pt" viewBox="0 0 1643.000000 1643.000000"
 preserveAspectRatio="xMidYMid meet">
<metadata>
Created by potrace 1.14, written by Peter Selinger 2001-2017
</metadata>
<g transform="translate(0.000000,1643.000000) scale(0.100000,-0.100000)"
fill="#000000" stroke="none">
<path d="M0 8215 l0 -8215 8215 0 8215 0 0 8215 0 8215 -8215 0 -8215 0 0
-8215z m2782 4797 c31 -23 61 -42 66 -42 5 0 17 -9 27 -20 10 -11 24 -20 32
-20 7 0 13 -3 13 -7 0 -5 30 -28 68 -53 37 -24 69 -47 72 -51 3 -4 34 -25 70
-48 35 -23 67 -45 70 -49 3 -4 32 -25 65 -47 33 -22 62 -42 65 -45 3 -3 34
-25 70 -50 36 -24 67 -48 68 -52 2 -4 10 -8 17 -8 8 0 21 -7 29 -16 9 -8 37
-30 63 -48 27 -18 84 -57 128 -87 44 -30 84 -60 88 -66 4 -7 12 -13 17 -13 9
0 106 -65 120 -80 3 -3 12 -9 21 -15 55 -34 119 -81 119 -87 0 -5 6 -8 13 -8
8 0 22 -9 32 -20 10 -11 23 -20 29 -20 6 0 23 -11 38 -25 15 -14 31 -25 36
-25 5 0 17 -9 27 -20 10 -11 24 -20 31 -20 7 0 14 -4 16 -9 2 -4 23 -21 47
-37 85 -56 113 -76 171 -121 15 -13 32 -23 37 -23 6 0 18 -9 28 -20 10 -11 22
-20 27 -20 5 0 21 -11 36 -25 15 -14 32 -25 38 -25 6 0 19 -9 29 -20 10 -11
24 -20 31 -20 7 0 14 -3 16 -8 5 -11 106 -82 118 -82 5 0 13 -6 17 -14 4 -7
28 -26 52 -42 24 -16 51 -33 59 -39 20 -13 141 -100 167 -120 10 -8 25 -15 32
-15 7 0 13 -4 13 -10 0 -5 20 -21 45 -36 25 -14 45 -30 45 -35 0 -5 6 -9 14
-9 8 0 21 -6 28 -12 17 -16 135 -101 213 -153 33 -22 64 -46 68 -52 4 -7 12
-13 17 -13 9 0 107 -66 120 -80 3 -3 35 -26 72 -50 38 -25 68 -48 68 -52 0 -5
5 -8 10 -8 12 0 114 -70 118 -82 2 -4 9 -8 15 -8 6 0 19 -7 29 -17 10 -9 26
-21 37 -27 52 -31 107 -70 114 -82 4 -8 13 -14 18 -14 6 0 38 -20 70 -45 33
-25 63 -45 68 -45 4 0 16 -9 26 -20 10 -11 23 -20 30 -20 6 0 22 -11 35 -25
13 -14 29 -25 35 -25 7 0 20 -9 30 -20 10 -11 22 -20 26 -20 5 0 17 -6 26 -14
51 -41 114 -86 122 -86 5 0 11 -4 13 -9 2 -4 23 -21 47 -37 24 -16 51 -33 59
-39 20 -13 141 -100 167 -120 10 -8 25 -15 32 -15 7 0 13 -4 13 -10 0 -5 20
-21 45 -36 25 -14 45 -30 45 -34 0 -5 10 -12 23 -16 12 -4 24 -10 27 -13 10
-13 110 -81 120 -81 5 0 13 -6 17 -12 4 -7 35 -31 68 -53 33 -22 62 -42 65
-46 3 -3 34 -25 70 -49 36 -24 71 -50 78 -57 7 -7 20 -13 28 -13 8 0 14 -4 14
-9 0 -5 20 -21 45 -35 25 -15 45 -31 45 -36 0 -6 5 -10 10 -10 9 0 108 -65
120 -79 3 -3 12 -10 21 -16 70 -43 165 -111 172 -122 4 -7 13 -13 18 -13 6 0
38 -20 70 -45 33 -25 63 -45 68 -45 4 0 16 -9 26 -20 10 -11 23 -20 28 -20 6
0 21 -10 33 -21 13 -12 32 -27 42 -33 51 -30 162 -108 167 -117 4 -6 17 -14
28 -20 12 -5 42 -25 67 -44 25 -19 52 -38 60 -42 8 -4 40 -26 72 -50 31 -24
60 -43 66 -43 5 0 16 -7 23 -16 11 -13 92 -71 167 -119 9 -5 24 -17 35 -26 21
-19 -1 -37 235 194 84 82 125 115 136 111 9 -3 37 -27 64 -53 43 -42 178 -165
275 -252 37 -32 67 -60 168 -155 24 -22 96 -87 159 -144 113 -101 161 -145
225 -205 18 -16 62 -57 99 -90 37 -33 106 -96 153 -141 l86 -80 -34 -35 c-19
-19 -45 -48 -59 -65 -48 -54 -213 -239 -246 -274 -32 -33 -95 -102 -140 -152
-95 -106 -240 -266 -253 -280 -9 -9 -36 -39 -61 -68 -25 -28 -65 -73 -90 -99
-52 -56 -84 -91 -199 -221 -46 -52 -101 -113 -122 -135 -21 -22 -51 -54 -66
-71 -15 -18 -46 -51 -68 -75 -40 -43 -210 -232 -230 -255 -7 -8 -24 -2 -63 22
-29 19 -57 34 -62 34 -6 0 -10 4 -10 9 0 5 -13 14 -29 21 -16 6 -37 20 -48 29
-10 10 -30 24 -45 32 -88 48 -106 59 -117 73 -8 9 -17 16 -22 16 -5 0 -55 30
-112 67 -56 38 -106 70 -112 72 -5 2 -54 33 -107 68 -54 34 -102 63 -106 63
-5 0 -17 8 -28 18 -10 10 -46 33 -79 52 -33 19 -66 40 -73 47 -8 8 -28 21 -45
30 -17 8 -37 22 -45 29 -7 8 -18 14 -23 14 -5 0 -38 20 -75 45 -36 25 -67 45
-70 45 -3 0 -17 8 -32 19 -25 17 -157 103 -193 126 -9 5 -35 20 -57 32 -22 13
-44 28 -47 34 -4 6 -15 13 -24 17 -20 8 -155 92 -279 174 -48 32 -93 58 -99
58 -7 0 -13 4 -13 8 0 5 -20 19 -45 32 -25 13 -45 26 -45 31 0 4 -12 12 -27
18 -16 6 -48 25 -73 41 -25 17 -58 38 -73 48 -16 9 -72 45 -124 80 -53 34 -98
62 -100 62 -2 0 -16 8 -31 19 -77 53 -153 100 -179 111 -11 5 -24 14 -28 20
-3 5 -23 19 -43 30 -20 12 -49 28 -63 38 -15 9 -48 30 -75 47 -27 16 -55 35
-62 42 -7 7 -20 13 -28 13 -8 0 -14 4 -14 9 0 5 -13 14 -29 21 -16 6 -37 19
-48 29 -10 10 -48 34 -85 55 -36 20 -72 43 -78 51 -7 8 -17 15 -22 15 -7 0
-80 45 -172 106 -38 25 -44 29 -156 99 -53 33 -105 66 -115 73 -11 7 -33 20
-49 30 -16 9 -41 27 -56 40 -15 12 -35 22 -44 22 -9 0 -16 4 -16 9 0 5 -15 16
-32 24 -18 9 -42 23 -53 32 -21 17 -85 57 -200 126 -38 23 -72 45 -75 49 -3 4
-19 14 -37 23 -17 9 -37 23 -45 30 -7 8 -25 20 -39 28 -88 48 -107 59 -118 73
-8 9 -17 16 -22 16 -5 0 -53 29 -107 63 -53 35 -101 66 -107 68 -5 2 -56 34
-112 72 -57 37 -107 67 -112 67 -5 0 -14 7 -21 15 -6 8 -42 31 -78 51 -37 21
-75 45 -85 55 -11 10 -32 23 -48 29 -16 7 -29 16 -29 21 0 5 -6 9 -12 9 -7 0
-46 23 -86 50 -41 28 -76 50 -78 50 -3 0 -17 8 -32 19 -69 47 -172 111 -180
111 -5 0 -15 7 -23 16 -7 8 -30 25 -52 37 -48 26 -46 25 -174 110 -57 37 -105
67 -107 67 -3 0 -34 20 -70 45 -37 25 -70 45 -75 45 -4 0 -21 11 -37 25 -16
14 -34 25 -40 25 -5 0 -20 9 -32 20 -12 11 -30 24 -39 28 -10 4 -32 16 -49 27
-30 18 -31 22 -37 104 -3 47 -11 223 -17 391 -6 168 -19 535 -30 815 -11 281
-22 600 -25 710 -3 110 -14 382 -25 605 -11 223 -20 413 -20 422 0 18 55 -15
182 -110z m10978 -1311 l0 -1440 -37 5 c-21 3 -96 16 -168 29 -71 13 -193 35
-270 48 -77 14 -184 33 -239 43 l-98 18 -152 124 c-83 68 -171 140 -195 160
-23 20 -49 38 -57 40 -8 2 -14 7 -14 12 0 5 -26 29 -57 53 -32 25 -68 53 -80
63 -12 11 -34 28 -48 39 -14 11 -36 29 -48 41 -19 18 -59 50 -141 114 -10 8
-26 23 -35 33 -8 9 -21 17 -28 17 -7 0 -17 9 -23 20 -6 11 -15 20 -20 20 -5 0
-20 10 -33 23 -42 40 -84 75 -105 86 -20 11 7 39 343 376 201 200 365 365 365
367 0 3 1133 1147 1138 1148 1 0 2 -648 2 -1439z m-4674 1373 c24 -19 60 -51
80 -70 20 -19 40 -34 44 -34 3 0 15 -10 26 -22 11 -13 42 -41 68 -63 26 -22
57 -50 69 -62 12 -12 39 -35 59 -51 50 -39 176 -150 209 -184 15 -16 30 -28
33 -28 3 0 16 -10 28 -22 13 -13 55 -50 93 -83 39 -33 85 -74 104 -92 18 -18
36 -33 40 -33 4 0 17 -10 28 -22 11 -13 42 -41 68 -63 27 -22 56 -47 65 -55 8
-8 47 -42 85 -74 39 -33 81 -70 95 -83 14 -12 47 -42 75 -65 27 -24 59 -53 71
-65 12 -13 26 -23 33 -23 6 0 11 -4 11 -8 0 -5 35 -38 78 -75 43 -36 97 -84
121 -106 24 -23 47 -41 52 -41 5 0 16 -11 25 -25 9 -14 23 -25 30 -25 8 0 14
-3 14 -8 0 -4 52 -52 115 -107 63 -54 115 -103 115 -107 0 -4 6 -8 13 -8 7 0
22 -10 33 -22 11 -13 42 -41 68 -63 26 -22 60 -52 74 -66 15 -14 56 -50 92
-79 36 -30 81 -69 100 -86 19 -17 49 -45 67 -60 17 -16 53 -48 80 -71 187
-161 239 -207 249 -219 6 -8 15 -14 20 -14 5 0 21 -12 35 -27 26 -29 45 -46
164 -147 39 -33 81 -70 95 -83 14 -12 47 -42 74 -65 27 -24 58 -51 69 -62 16
-16 163 -142 262 -226 16 -14 42 -37 56 -52 15 -16 32 -28 38 -28 6 0 11 -4
11 -8 0 -5 52 -53 115 -106 63 -54 115 -102 115 -107 0 -5 7 -9 15 -9 8 0 22
-11 31 -25 9 -14 20 -25 25 -25 4 0 19 -10 32 -22 35 -34 93 -85 177 -157 41
-35 91 -79 110 -97 19 -17 47 -42 62 -55 15 -13 49 -43 75 -66 27 -23 93 -80
148 -128 55 -48 104 -93 108 -101 4 -8 14 -14 22 -14 8 0 19 -9 25 -20 6 -11
17 -20 25 -20 8 0 17 -10 20 -22 3 -13 4 -1386 3 -3052 l-3 -3028 -34 48 c-19
27 -41 53 -48 57 -7 4 -13 14 -13 21 0 8 -7 19 -15 26 -8 7 -34 40 -56 74 -23
33 -48 65 -56 69 -7 4 -13 15 -13 22 0 8 -3 15 -7 15 -5 0 -21 21 -38 45 -16
25 -33 45 -37 45 -5 0 -8 5 -8 11 0 6 -11 25 -25 43 -14 17 -29 36 -33 41 -51
70 -67 91 -74 93 -4 2 -8 9 -8 16 0 6 -8 19 -17 27 -10 9 -43 51 -73 94 -30
42 -62 85 -70 95 -8 10 -33 44 -55 74 -22 31 -43 56 -47 56 -4 0 -8 6 -8 13 0
8 -8 21 -18 31 -11 9 -39 45 -63 81 -24 36 -47 65 -51 65 -5 0 -8 6 -8 13 0 8
-9 22 -20 32 -11 10 -20 24 -20 32 0 7 -4 13 -8 13 -7 0 -61 68 -87 110 -5 8
-16 22 -23 30 -14 18 -57 74 -92 125 -14 19 -34 46 -45 58 -11 13 -38 49 -59
80 -22 31 -43 57 -48 57 -4 0 -8 6 -8 14 0 7 -7 19 -15 26 -8 7 -34 40 -56 74
-23 33 -48 65 -56 69 -7 4 -13 12 -13 17 0 6 -7 18 -15 27 -8 10 -39 52 -69
93 -30 41 -58 80 -63 85 -4 6 -21 28 -38 50 -16 22 -33 42 -37 43 -4 2 -8 9
-8 16 0 6 -8 19 -17 27 -10 9 -43 51 -73 94 -30 43 -59 83 -65 89 -5 6 -20 26
-32 43 l-23 32 0 984 0 983 -287 285 c-158 156 -505 500 -771 764 -266 264
-692 687 -947 940 -255 253 -660 655 -899 893 l-434 432 -54 -32 c-29 -18 -58
-37 -64 -43 -6 -5 -27 -19 -47 -30 -20 -11 -37 -23 -37 -27 0 -5 -4 -8 -10 -8
-5 0 -41 -20 -80 -45 -39 -25 -75 -45 -80 -45 -6 0 -10 -4 -10 -9 0 -5 -13
-14 -28 -20 -15 -6 -41 -23 -56 -36 -16 -14 -33 -25 -38 -25 -5 0 -21 -8 -36
-19 -25 -17 -157 -103 -193 -126 -9 -5 -35 -20 -57 -32 -22 -13 -43 -27 -47
-32 -3 -5 -20 -17 -38 -27 -17 -9 -44 -23 -60 -31 -26 -14 -30 -13 -80 23 -28
21 -56 44 -60 51 -4 7 -12 13 -17 13 -6 0 -19 8 -29 18 -11 9 -41 33 -67 52
-25 19 -54 43 -63 53 -8 9 -20 17 -25 17 -5 0 -16 7 -25 15 -20 19 -89 74
-125 100 -16 11 -38 28 -50 38 -11 10 -55 43 -96 74 -41 30 -82 62 -90 70 -8
8 -58 46 -110 85 -52 39 -106 81 -121 94 -14 13 -28 24 -31 24 -4 0 -17 9 -30
20 -75 63 -148 120 -153 120 -3 0 -13 7 -22 15 -10 9 -38 32 -63 51 -25 19
-53 42 -63 50 -9 8 -20 14 -23 14 -4 0 -17 10 -29 23 -13 12 -44 38 -70 57
-26 19 -53 41 -60 48 -8 6 -18 12 -24 12 -5 0 -16 8 -23 18 -7 9 -26 25 -41
35 l-28 18 53 32 c29 18 64 38 78 45 14 7 39 20 55 30 17 10 53 31 80 46 28
16 57 34 66 42 8 8 23 14 31 14 9 0 18 4 20 9 2 5 26 20 53 35 28 15 68 38 90
51 22 13 49 29 60 34 11 6 43 24 70 40 28 17 66 39 85 49 38 21 142 81 168 97
9 6 40 23 67 38 28 15 73 40 100 56 28 16 69 39 93 52 23 12 42 26 42 31 0 4
9 8 19 8 11 0 23 5 26 10 3 6 23 18 43 29 55 27 136 74 142 81 3 4 19 13 35
22 17 8 48 25 70 38 22 12 58 32 80 43 22 12 42 24 45 28 3 3 23 16 45 28 89
49 192 107 320 181 28 16 69 39 93 51 23 13 42 26 42 31 0 4 9 8 19 8 11 0 23
5 26 10 4 6 27 22 53 35 47 25 56 31 122 71 19 12 62 36 95 54 33 18 78 44
100 56 22 13 60 35 85 49 25 14 52 29 60 35 27 17 165 95 190 108 14 7 50 28
80 46 30 19 59 35 64 35 5 1 29 -15 52 -35z m-3228 -61 c15 -23 30 -43 35 -43
4 0 7 -4 7 -10 0 -5 20 -39 45 -76 25 -36 45 -69 45 -74 0 -5 6 -13 13 -17 10
-7 46 -56 82 -114 10 -17 93 -138 119 -174 8 -11 31 -47 53 -79 21 -32 45 -69
53 -81 8 -12 27 -39 41 -60 l26 -39 -23 -21 c-31 -27 -128 -110 -171 -145
-119 -99 -149 -124 -153 -129 -3 -3 -30 -26 -60 -51 -30 -24 -62 -51 -71 -60
-9 -8 -31 -26 -48 -40 -18 -14 -40 -33 -49 -42 -25 -27 -28 -26 -105 47 -18
17 -66 59 -107 95 -107 94 -126 111 -174 155 -25 22 -74 66 -109 98 l-65 58
21 40 c11 21 24 39 29 39 4 0 8 9 8 20 0 11 4 20 8 20 5 0 19 19 32 43 13 23
30 48 37 55 7 7 13 18 13 23 0 6 11 25 25 43 14 18 25 37 25 43 0 5 9 18 20
28 11 10 20 23 20 28 0 6 11 25 25 43 14 18 25 36 25 39 0 3 11 21 25 39 14
18 25 37 25 43 0 5 9 18 20 28 11 10 20 24 20 32 0 8 11 26 25 41 14 15 25 32
25 39 0 6 6 18 13 25 7 7 24 32 37 56 13 23 27 42 32 42 4 0 8 8 8 17 0 9 7
25 17 35 15 17 17 17 35 1 10 -9 31 -36 46 -60z m5837 -126 c8 -9 15 -24 15
-32 0 -8 4 -15 8 -15 5 0 19 -19 32 -42 13 -24 30 -49 37 -56 7 -7 13 -18 13
-23 0 -6 11 -25 25 -43 14 -18 25 -37 25 -43 0 -5 9 -18 20 -28 11 -10 20 -22
20 -28 0 -5 10 -23 23 -40 26 -38 35 -52 64 -104 12 -22 29 -45 37 -52 9 -8
16 -22 16 -32 0 -11 4 -19 8 -19 5 0 19 -20 32 -45 13 -25 26 -45 29 -45 3 0
17 -20 30 -45 13 -25 28 -45 32 -45 5 0 9 -8 9 -18 0 -11 9 -27 20 -37 11 -10
20 -24 20 -30 0 -7 -26 -34 -57 -61 -70 -58 -127 -109 -164 -146 -15 -16 -30
-28 -33 -28 -3 0 -20 -15 -38 -33 -18 -18 -71 -66 -118 -107 -47 -41 -94 -82
-104 -92 -19 -17 -21 -17 -45 5 -14 12 -28 25 -31 28 -3 3 -34 30 -70 60 -36
29 -70 58 -76 64 -7 5 -31 26 -55 45 -24 19 -56 46 -71 60 -15 14 -39 34 -53
45 -14 11 -36 29 -48 41 -12 11 -57 49 -99 83 -67 54 -75 65 -63 77 8 8 24 32
36 54 13 22 26 40 31 40 4 0 8 5 8 10 0 12 70 114 82 118 4 2 8 10 8 17 0 8 6
20 13 27 16 17 77 107 77 115 0 3 12 20 28 38 15 17 39 52 54 76 64 102 114
177 131 193 9 10 17 22 17 27 0 5 11 22 25 37 14 15 25 31 25 36 0 5 8 18 17
28 17 19 18 19 30 1 8 -10 20 -26 28 -36z m-8931 -3207 c4 0 22 -11 40 -25 18
-14 37 -25 43 -25 5 0 18 -9 28 -20 10 -11 22 -20 26 -20 9 0 95 -57 117 -77
7 -7 20 -13 28 -13 8 0 14 -3 14 -8 0 -4 17 -16 37 -27 20 -11 41 -25 47 -30
18 -18 106 -75 115 -75 5 0 14 -7 22 -16 7 -8 29 -24 48 -35 20 -11 48 -27 62
-37 48 -32 114 -75 184 -120 39 -25 76 -52 83 -59 7 -7 19 -13 27 -13 7 0 15
-4 17 -8 4 -11 113 -82 126 -82 6 0 12 -4 14 -9 2 -4 23 -21 47 -37 24 -16 56
-37 70 -46 14 -10 42 -26 62 -37 19 -11 41 -27 48 -35 8 -9 17 -16 22 -16 9 0
95 -57 117 -77 7 -7 18 -13 23 -13 9 0 20 -7 52 -36 7 -6 23 -15 35 -18 12 -4
22 -11 22 -16 0 -5 10 -12 22 -16 12 -3 33 -17 47 -30 14 -13 31 -24 37 -24 6
0 19 -9 29 -20 10 -11 22 -20 28 -20 5 0 23 -10 40 -22 17 -13 39 -27 48 -33
9 -5 36 -23 60 -39 24 -16 76 -49 114 -74 39 -25 72 -49 73 -54 2 -4 9 -8 16
-8 7 0 26 -11 42 -25 15 -13 41 -30 56 -36 l28 -11 0 -1388 0 -1387 -45 -49
c-25 -26 -45 -51 -45 -56 0 -4 -11 -15 -25 -24 -14 -9 -25 -20 -25 -25 0 -4
-10 -19 -22 -32 -29 -29 -65 -70 -157 -179 -41 -49 -78 -88 -83 -88 -4 0 -8
-6 -8 -14 0 -7 -11 -21 -25 -30 -14 -9 -25 -23 -25 -31 0 -8 -3 -15 -8 -15 -4
0 -52 -52 -107 -115 -54 -63 -103 -115 -107 -115 -4 0 -8 -5 -8 -11 0 -7 -10
-22 -22 -34 -13 -12 -41 -43 -63 -70 -22 -26 -47 -54 -55 -63 -8 -8 -45 -51
-83 -96 -37 -44 -75 -84 -83 -89 -7 -4 -14 -13 -14 -19 0 -6 -10 -21 -22 -33
-13 -12 -41 -43 -63 -69 -22 -26 -49 -57 -61 -69 -11 -12 -44 -51 -74 -87 -30
-36 -65 -77 -79 -91 -15 -14 -44 -48 -66 -74 -22 -27 -47 -56 -56 -64 -9 -9
-42 -47 -74 -86 -31 -38 -66 -79 -76 -90 -60 -65 -122 -136 -227 -260 -47 -55
-100 -116 -118 -135 -17 -19 -43 -48 -58 -65 -14 -16 -32 -37 -39 -45 -8 -8
-42 -49 -77 -90 -35 -41 -72 -84 -82 -95 -10 -11 -32 -35 -48 -54 l-30 -35 0
3424 c0 3316 1 3423 18 3407 10 -10 22 -17 26 -17z"/>
</g>
</svg>
